<svg width="168" height="60" viewBox="0 0 168 60" fill="none" xmlns="http://www.w3.org/2000/svg">
<path d="M18.6147 26.2015C20.1928 27.0462 21.4552 28.3131 22.402 30.0552C23.2962 31.7973 23.7697 33.9089 23.7697 36.3901V51.9104H20.4032V36.7596C20.4032 33.8561 19.6667 31.6917 18.2465 30.1608C16.8263 28.6299 14.8274 27.8908 12.3551 27.8908C9.83026 27.8908 7.7788 28.6827 6.25336 30.3192C4.72792 31.9557 3.99149 34.3312 3.99149 37.4459V51.9104H0.625V16.013H3.99149V29.9496C4.83312 28.3659 6.04295 27.1518 7.6736 26.2543C9.30424 25.3569 11.1453 24.9346 13.1442 24.9346C15.1956 24.9346 17.0367 25.3569 18.6147 26.2015ZM53.1213 39.9798H31.2391C31.3443 41.9858 31.8177 43.7279 32.7119 45.1533C33.6061 46.5786 34.7108 47.6344 36.131 48.3735C37.5512 49.1125 39.0767 49.4821 40.7599 49.4821C42.9692 49.4821 44.8102 48.9542 46.2831 47.8984C47.8085 46.8426 48.7554 45.3644 49.2814 43.5696H52.8583C52.2271 46.1563 50.8594 48.2679 48.7028 49.9044C46.5987 51.5409 43.916 52.3328 40.7599 52.3328C38.2877 52.3328 36.0258 51.7521 34.0795 50.6435C32.1333 49.5349 30.5552 47.9512 29.4506 45.8923C28.346 43.8335 27.7674 41.4579 27.7674 38.6601C27.7674 35.915 28.2934 33.4866 29.398 31.4278C30.5026 29.369 32.0281 27.7852 33.9743 26.6766C35.9206 25.568 38.1825 25.0401 40.7073 25.0401C43.2322 25.0401 45.4415 25.568 47.3351 26.6766C49.2288 27.7852 50.649 29.2634 51.701 31.111C52.7005 32.9587 53.2265 35.0175 53.2265 37.2875C53.2265 38.5017 53.2265 39.3463 53.1213 39.9798ZM48.5976 32.1668C47.7559 30.7943 46.6513 29.7385 45.2311 28.9994C43.8108 28.3131 42.2854 27.9436 40.6021 27.9436C38.0773 27.9436 35.9206 28.7355 34.1847 30.372C32.3963 32.0085 31.4495 34.2785 31.2391 37.2347H49.8074C49.86 35.2287 49.4392 33.5394 48.5976 32.1668ZM71.3214 51.9104L64.4832 41.2468L57.908 51.9104H54.3311L62.8526 38.6601L54.4363 25.4097H58.2762L65.0092 35.9677L71.5318 25.4097H75.0561L66.6399 38.5017L75.1613 51.9104H71.3214ZM88.0487 31.4806C89.1533 29.4217 90.6787 27.838 92.5724 26.7294C94.4661 25.6208 96.7279 25.0401 99.2002 25.0401C102.461 25.0401 105.144 25.832 107.248 27.4685C109.352 29.105 110.72 31.2694 111.351 34.0673H107.722C107.248 32.1668 106.301 30.6359 104.776 29.5801C103.251 28.4715 101.409 27.9436 99.2002 27.9436C97.4117 27.9436 95.8337 28.3659 94.4135 29.1578C92.9932 29.9496 91.8886 31.1638 91.047 32.8003C90.2053 34.384 89.8371 36.3901 89.8371 38.7128C89.8371 41.0356 90.2579 43.0417 91.047 44.6254C91.8886 46.2619 92.9932 47.476 94.4135 48.2679C95.8337 49.0598 97.4117 49.4821 99.2002 49.4821C101.409 49.4821 103.303 48.9542 104.776 47.8456C106.301 46.737 107.248 45.2588 107.722 43.3056H111.351C110.72 46.0507 109.352 48.2151 107.248 49.8516C105.144 51.4881 102.461 52.3328 99.2002 52.3328C96.7279 52.3328 94.5187 51.7521 92.5724 50.6435C90.6261 49.5349 89.1007 47.9512 88.0487 45.8923C86.944 43.8335 86.418 41.4579 86.418 38.6601C86.3654 35.915 86.944 33.5394 88.0487 31.4806ZM120.504 50.6435C118.505 49.5349 116.979 47.9512 115.822 45.8923C114.665 43.8335 114.086 41.4579 114.086 38.6601C114.086 35.915 114.665 33.4866 115.822 31.4278C116.979 29.369 118.558 27.7852 120.556 26.6766C122.555 25.568 124.817 24.9874 127.289 24.9874C129.762 24.9874 132.024 25.568 134.022 26.6766C136.021 27.7852 137.599 29.369 138.757 31.4278C139.914 33.4866 140.492 35.915 140.492 38.6601C140.492 41.4052 139.914 43.7807 138.757 45.8395C137.599 47.8984 136.021 49.4821 133.97 50.6435C131.918 51.7521 129.656 52.3328 127.184 52.3328C124.765 52.3328 122.503 51.7521 120.504 50.6435ZM132.076 48.1623C133.549 47.3705 134.759 46.1563 135.706 44.5726C136.6 42.9889 137.073 40.9828 137.073 38.6601C137.073 36.3373 136.6 34.384 135.706 32.7475C134.811 31.1638 133.602 29.9496 132.129 29.1578C130.656 28.3659 129.025 27.9436 127.289 27.9436C125.554 27.9436 123.923 28.3659 122.45 29.1578C120.977 29.9496 119.767 31.1638 118.873 32.7475C117.979 34.3312 117.558 36.3373 117.558 38.6601C117.558 40.9828 117.979 42.9361 118.873 44.5726C119.767 46.1563 120.925 47.3705 122.397 48.1623C123.87 48.9542 125.448 49.3765 127.237 49.3765C128.973 49.3765 130.603 48.9542 132.076 48.1623ZM164.952 27.8908C166.951 29.8441 167.95 32.6947 167.95 36.3901V51.9104H164.636V36.7596C164.636 33.8561 163.9 31.6917 162.48 30.1608C161.06 28.6299 159.061 27.8908 156.588 27.8908C154.064 27.8908 152.012 28.6827 150.487 30.3192C148.961 31.9557 148.225 34.3312 148.225 37.4459V51.9104H144.858V25.4097H148.225V29.9496C149.066 28.3131 150.276 27.099 151.854 26.2543C153.432 25.4097 155.221 24.9874 157.22 24.9874C160.323 24.9346 162.953 25.8848 164.952 27.8908ZM82.4729 25.4097L81.7891 59.1955L79.7376 57.9285L79.0538 25.4097H82.4729ZM75.7925 19.286L46.9669 1.81239L49.071 0.651006L77.4758 16.3297L75.7925 19.286ZM84.051 16.3825L113.56 0.0703125L113.508 2.44588L85.7868 19.286L84.051 16.3825ZM79.0538 22.1895C78.5804 21.7144 78.3174 21.0809 78.3174 20.3946C78.3174 19.7083 78.5804 19.0748 79.0538 18.5997C79.5272 18.1246 80.1059 17.9134 80.7897 17.9134C81.4735 17.9134 82.0521 18.1246 82.5255 18.5997C82.9989 19.0748 83.2619 19.6555 83.2619 20.3946C83.2619 21.0809 82.9989 21.7144 82.5255 22.1895C82.0521 22.6646 81.4735 22.9285 80.7897 22.9285C80.1059 22.9285 79.5272 22.6646 79.0538 22.1895Z" fill="black"/>
</svg>
